<mxfile host="app.diagrams.net" agent="Mozilla/5.0 (Windows NT 10.0; Win64; x64) AppleWebKit/537.36 (KHTML, like Gecko) Chrome/131.0.0.0 Safari/537.36 OPR/116.0.0.0" version="26.0.16">
  <diagram name="Page-1" id="9361dd3d-8414-5efd-6122-117bd74ce7a7">
    <mxGraphModel dx="760" dy="628" grid="1" gridSize="10" guides="1" tooltips="1" connect="1" arrows="1" fold="1" page="0" pageScale="1.5" pageWidth="826" pageHeight="1169" background="none" math="0" shadow="0">
      <root>
        <mxCell id="0" />
        <mxCell id="1" parent="0" />
        <mxCell id="XYofp2Gmk5q8r9Ai6T1T-107" value="Produto" style="swimlane;fontStyle=1;align=center;verticalAlign=top;childLayout=stackLayout;horizontal=1;startSize=26;horizontalStack=0;resizeParent=1;resizeParentMax=0;resizeLast=0;collapsible=1;marginBottom=0;whiteSpace=wrap;html=1;fillColor=#e6d0de;strokeColor=#996185;gradientColor=#d5739d;rounded=1;" vertex="1" parent="1">
          <mxGeometry x="670" y="230" width="180" height="216" as="geometry" />
        </mxCell>
        <mxCell id="XYofp2Gmk5q8r9Ai6T1T-111" value="- preco: double&lt;span style=&quot;white-space: pre;&quot;&gt;&#x9;&lt;/span&gt;&lt;span style=&quot;white-space: pre;&quot;&gt;&#x9;&lt;/span&gt;" style="text;strokeColor=#996185;fillColor=#e6d0de;align=left;verticalAlign=top;spacingLeft=4;spacingRight=4;overflow=hidden;rotatable=0;points=[[0,0.5],[1,0.5]];portConstraint=eastwest;whiteSpace=wrap;html=1;gradientColor=#d5739d;rounded=1;" vertex="1" parent="XYofp2Gmk5q8r9Ai6T1T-107">
          <mxGeometry y="26" width="180" height="26" as="geometry" />
        </mxCell>
        <mxCell id="XYofp2Gmk5q8r9Ai6T1T-112" value="- quantidade: int" style="text;strokeColor=#996185;fillColor=#e6d0de;align=left;verticalAlign=top;spacingLeft=4;spacingRight=4;overflow=hidden;rotatable=0;points=[[0,0.5],[1,0.5]];portConstraint=eastwest;whiteSpace=wrap;html=1;gradientColor=#d5739d;rounded=1;" vertex="1" parent="XYofp2Gmk5q8r9Ai6T1T-107">
          <mxGeometry y="52" width="180" height="26" as="geometry" />
        </mxCell>
        <mxCell id="XYofp2Gmk5q8r9Ai6T1T-109" value="" style="line;strokeWidth=1;fillColor=#e6d0de;align=left;verticalAlign=middle;spacingTop=-1;spacingLeft=3;spacingRight=3;rotatable=0;labelPosition=right;points=[];portConstraint=eastwest;strokeColor=#996185;gradientColor=#d5739d;rounded=1;" vertex="1" parent="XYofp2Gmk5q8r9Ai6T1T-107">
          <mxGeometry y="78" width="180" height="8" as="geometry" />
        </mxCell>
        <mxCell id="XYofp2Gmk5q8r9Ai6T1T-110" value="+ Produto(n, p, q)" style="text;strokeColor=#996185;fillColor=#e6d0de;align=left;verticalAlign=top;spacingLeft=4;spacingRight=4;overflow=hidden;rotatable=0;points=[[0,0.5],[1,0.5]];portConstraint=eastwest;whiteSpace=wrap;html=1;gradientColor=#d5739d;rounded=1;" vertex="1" parent="XYofp2Gmk5q8r9Ai6T1T-107">
          <mxGeometry y="86" width="180" height="26" as="geometry" />
        </mxCell>
        <mxCell id="XYofp2Gmk5q8r9Ai6T1T-113" value="+ exibirDetalhes(): void" style="text;strokeColor=#996185;fillColor=#e6d0de;align=left;verticalAlign=top;spacingLeft=4;spacingRight=4;overflow=hidden;rotatable=0;points=[[0,0.5],[1,0.5]];portConstraint=eastwest;whiteSpace=wrap;html=1;gradientColor=#d5739d;rounded=1;" vertex="1" parent="XYofp2Gmk5q8r9Ai6T1T-107">
          <mxGeometry y="112" width="180" height="26" as="geometry" />
        </mxCell>
        <mxCell id="XYofp2Gmk5q8r9Ai6T1T-114" value="+ adicionarEstoque(qtd): void" style="text;strokeColor=#996185;fillColor=#e6d0de;align=left;verticalAlign=top;spacingLeft=4;spacingRight=4;overflow=hidden;rotatable=0;points=[[0,0.5],[1,0.5]];portConstraint=eastwest;whiteSpace=wrap;html=1;gradientColor=#d5739d;rounded=1;" vertex="1" parent="XYofp2Gmk5q8r9Ai6T1T-107">
          <mxGeometry y="138" width="180" height="26" as="geometry" />
        </mxCell>
        <mxCell id="XYofp2Gmk5q8r9Ai6T1T-115" value="+ removerEstoque(qtd): void" style="text;strokeColor=#996185;fillColor=#e6d0de;align=left;verticalAlign=top;spacingLeft=4;spacingRight=4;overflow=hidden;rotatable=0;points=[[0,0.5],[1,0.5]];portConstraint=eastwest;whiteSpace=wrap;html=1;gradientColor=#d5739d;rounded=1;" vertex="1" parent="XYofp2Gmk5q8r9Ai6T1T-107">
          <mxGeometry y="164" width="180" height="26" as="geometry" />
        </mxCell>
        <mxCell id="XYofp2Gmk5q8r9Ai6T1T-116" value="+ calcularValorTotal(): double" style="text;strokeColor=#996185;fillColor=#e6d0de;align=left;verticalAlign=top;spacingLeft=4;spacingRight=4;overflow=hidden;rotatable=0;points=[[0,0.5],[1,0.5]];portConstraint=eastwest;whiteSpace=wrap;html=1;gradientColor=#d5739d;rounded=1;" vertex="1" parent="XYofp2Gmk5q8r9Ai6T1T-107">
          <mxGeometry y="190" width="180" height="26" as="geometry" />
        </mxCell>
      </root>
    </mxGraphModel>
  </diagram>
</mxfile>
